<svg xmlns="http://www.w3.org/2000/svg" width="1275" height="687" fill="none"><path fill="#FFB015" d="M78.63 656.912v9.291h14.742v4.773H78.63v11.676H73v-30.514h22.249v4.774H78.63Zm42.244 26.171c-3.131 0-5.947-.644-8.44-1.964a15.863 15.863 0 0 1-5.881-5.625 15.698 15.698 0 0 1-2.128-8.097c0-2.946.698-5.63 2.128-8.02a15.886 15.886 0 0 1 5.881-5.619 17.294 17.294 0 0 1 8.44-2.046c3.11 0 5.925.682 8.44 2.046 2.494 1.364 4.452 3.235 5.882 5.619 1.407 2.39 2.127 5.074 2.127 8.02 0 3.023-.72 5.713-2.127 8.097a15.249 15.249 0 0 1-5.882 5.625c-2.509 1.32-5.33 1.964-8.44 1.964Zm0-4.949a10.74 10.74 0 0 0 5.456-1.364 9.497 9.497 0 0 0 3.835-3.835c.961-1.637 1.452-3.492 1.452-5.538 0-2.045-.491-3.857-1.452-5.455a9.764 9.764 0 0 0-3.835-3.836 10.391 10.391 0 0 0-5.456-1.451c-2.046 0-3.901.491-5.543 1.451a10.357 10.357 0 0 0-3.835 3.836 10.74 10.74 0 0 0-1.364 5.455c0 2.046.447 3.901 1.364 5.538.96 1.664 2.237 2.946 3.835 3.835 1.642.917 3.497 1.364 5.543 1.364Zm48.267 4.523-6.219-8.953a6.005 6.005 0 0 1-1.19.088h-6.907v8.865h-5.624v-30.519h12.531c2.663 0 4.965.469 6.902 1.364 1.98.851 3.492 2.111 4.517 3.748 1.026 1.598 1.539 3.541 1.539 5.799 0 2.281-.578 4.239-1.708 5.882-1.091 1.664-2.684 2.875-4.774 3.666l7.077 10.06h-6.144Zm-.082-19.608c0-1.98-.654-3.491-1.964-4.517-1.254-1.026-3.126-1.539-5.619-1.539h-6.656v12.112h6.656c2.493 0 4.365-.518 5.619-1.538 1.31-1.064 1.964-2.581 1.964-4.518Zm24.088-6.056H183.01v-4.855h25.915v4.855h-10.148v25.664h-5.625l-.005-25.664Zm45.675 18.588h-15.26l-2.984 7.076h-5.881l13.727-30.519h5.624l13.727 30.519h-5.887l-3.066-7.076Zm-1.877-4.435-5.712-13.296-5.712 13.296h11.424Zm20.612-19.008h5.625v25.745h15.942v4.774h-21.567v-30.519Zm54.831 25.745v4.774H289.55v-30.519h22.248v4.774h-16.629v7.927h14.747v4.692h-14.747v8.347l17.219.005Zm26.384 5.2c-3.137 0-5.947-.644-8.44-1.964a15.16 15.16 0 0 1-5.8-5.625 15.432 15.432 0 0 1-2.128-8.097c0-2.946.704-5.63 2.128-8.02a15.924 15.924 0 0 1 5.881-5.619c2.494-1.364 5.293-2.046 8.359-2.046 2.493 0 4.773.469 6.819 1.364 2.09.851 3.858 2.106 5.282 3.748l-3.661 3.41a10.728 10.728 0 0 0-8.184-3.579c-2.111 0-3.983.491-5.63 1.451a10.118 10.118 0 0 0-3.917 3.836 10.74 10.74 0 0 0-1.364 5.455c0 2.046.447 3.901 1.364 5.538.954 1.664 2.258 2.946 3.917 3.835 1.642.917 3.519 1.364 5.63 1.364 3.235 0 5.963-1.211 8.184-3.66l3.661 3.491c-1.424 1.664-3.192 2.946-5.282 3.836a17.618 17.618 0 0 1-6.819 1.282Zm46.254-5.2v4.774h-22.849v-30.519h22.248v4.774h-16.623v7.927h14.747v4.692h-14.747v8.347l17.224.005Zm32.172 4.774-6.219-8.953c-.397.07-.799.099-1.201.088h-6.901v8.865h-5.631v-30.519h12.532c2.663 0 4.965.469 6.902 1.364 1.98.851 3.492 2.111 4.517 3.748 1.026 1.598 1.539 3.541 1.539 5.799 0 2.281-.579 4.239-1.708 5.882-1.091 1.664-2.684 2.875-4.774 3.666l7.076 10.06h-6.132Zm-.087-19.608c0-1.98-.655-3.491-1.964-4.517-1.255-1.026-3.126-1.539-5.62-1.539h-6.656v12.112h6.656c2.494 0 4.365-.518 5.62-1.538 1.309-1.064 1.964-2.581 1.964-4.518Zm58.644 14.834v4.774h-22.844v-30.519h22.249v4.774h-16.624v7.927h14.747v4.692h-14.747v8.347l17.219.005Zm44.311 5.2c-3.131 0-5.946-.644-8.44-1.964a15.173 15.173 0 0 1-5.794-5.625 15.422 15.422 0 0 1-2.127-8.097c0-2.946.698-5.63 2.127-8.02a15.881 15.881 0 0 1 5.882-5.619c2.493-1.364 5.286-2.046 8.352-2.046 2.494 0 4.774.469 6.82 1.364 2.09.851 3.857 2.106 5.287 3.748l-3.667 3.41a10.724 10.724 0 0 0-8.183-3.579c-2.112 0-3.983.491-5.625 1.451a10.12 10.12 0 0 0-3.923 3.836 10.75 10.75 0 0 0-1.364 5.455c0 2.046.448 3.901 1.364 5.538.96 1.664 2.259 2.946 3.923 3.835 1.637.917 3.513 1.364 5.625 1.364 3.241 0 5.968-1.211 8.183-3.66l3.667 3.491c-1.43 1.664-3.197 2.946-5.287 3.836a17.62 17.62 0 0 1-6.82 1.282Zm43.352-.426-6.22-8.953a5.975 5.975 0 0 1-1.195.088h-6.907v8.865h-5.619v-30.519h12.526c2.663 0 4.965.469 6.907 1.364 1.981.851 3.492 2.111 4.518 3.748 1.02 1.598 1.533 3.541 1.533 5.799 0 2.281-.578 4.239-1.708 5.882-1.085 1.664-2.684 2.875-4.774 3.666l7.077 10.06h-6.138Zm-.082-19.608c0-1.98-.66-3.491-1.964-4.517-1.255-1.026-3.132-1.539-5.619-1.539h-6.657v12.112h6.657c2.487 0 4.364-.518 5.619-1.538 1.304-1.064 1.964-2.581 1.964-4.518Zm40.711 14.834v4.774h-22.843v-30.519h22.248v4.774h-16.624v7.927h14.747v4.692h-14.747v8.347l17.219.005Zm21.692 5.2c-2.306 0-4.6-.315-6.82-.939-2.215-.682-3.961-1.582-5.199-2.727l1.964-4.349c1.233.982 2.766 1.768 4.599 2.384a16.12 16.12 0 0 0 5.456.939c2.259 0 3.944-.36 5.03-1.108 1.129-.725 1.702-1.702 1.702-2.897a2.778 2.778 0 0 0-.933-2.127 6.54 6.54 0 0 0-2.389-1.283 46.42 46.42 0 0 0-3.923-1.107 51.94 51.94 0 0 1-5.619-1.62 9.156 9.156 0 0 1-3.672-2.641c-1.02-1.2-1.533-2.772-1.533-4.774 0-1.707.447-3.241 1.364-4.604.895-1.364 2.258-2.434 4.092-3.241 1.876-.851 4.135-1.277 6.819-1.277 1.845.004 3.681.261 5.456.764 1.811.469 3.366 1.107 4.692 1.964l-1.795 4.348a20.936 20.936 0 0 0-4.261-1.707c-1.35-.44-2.759-.67-4.179-.682-2.215 0-3.895.403-5.03 1.194a3.453 3.453 0 0 0-1.615 2.985c0 .851.295 1.576.933 2.128.622.578 1.407 1.025 2.389 1.363.961.301 2.259.639 3.923 1.026 1.882.407 3.733.948 5.538 1.62a9.302 9.302 0 0 1 3.753 2.641c1.064 1.151 1.621 2.706 1.621 4.692 0 1.659-.491 3.153-1.452 4.517-.916 1.364-2.302 2.472-4.179 3.323-1.827.786-4.07 1.195-6.732 1.195Zm37.983 0c-3.137 0-5.947-.644-8.44-1.964a15.167 15.167 0 0 1-5.8-5.625 15.422 15.422 0 0 1-2.127-8.097c0-2.946.698-5.63 2.127-8.02a15.919 15.919 0 0 1 5.882-5.619c2.493-1.364 5.286-2.046 8.358-2.046 2.493 0 4.774.469 6.82 1.364 2.084.851 3.857 2.106 5.281 3.748l-3.667 3.41a10.724 10.724 0 0 0-8.183-3.579c-2.106 0-3.983.491-5.62 1.451a10.126 10.126 0 0 0-3.928 3.836 10.75 10.75 0 0 0-1.364 5.455c0 2.046.448 3.901 1.364 5.538.96 1.664 2.259 2.946 3.928 3.835 1.637.917 3.514 1.364 5.62 1.364 3.241 0 5.968-1.211 8.183-3.66l3.667 3.491c-1.424 1.664-3.197 2.946-5.281 3.836a17.623 17.623 0 0 1-6.82 1.282Zm46.248-5.2v4.774h-22.848v-30.519h22.254v4.774h-16.624v7.927h14.747v4.692h-14.747v8.347l17.218.005Zm32.178 4.774-6.219-8.953c-.396.07-.798.099-1.2.088h-6.902v8.865h-5.625v-30.519h12.527c2.667 0 4.964.469 6.906 1.364 1.981.851 3.492 2.111 4.518 3.748 1.026 1.598 1.533 3.541 1.533 5.799 0 2.281-.573 4.239-1.702 5.882-1.091 1.664-2.684 2.875-4.774 3.666l7.076 10.06h-6.138Zm-.087-19.608c0-1.98-.655-3.491-1.964-4.517-1.255-1.026-3.126-1.539-5.619-1.539h-6.656v12.112h6.656c2.493 0 4.364-.518 5.619-1.538 1.309-1.064 1.964-2.581 1.964-4.518Z"/><path fill="#fff" d="m814.638 661.767-15.085 5.63 15.085 5.62v4.523l-20.115-7.758v-4.692l20.115-7.84v4.517Zm18.381-4.855v9.291h14.747v4.773h-14.747v11.676h-5.625v-30.514h22.249v4.774h-16.624Zm42.249 26.171c-3.131 0-5.947-.644-8.44-1.964a15.856 15.856 0 0 1-5.881-5.625 15.698 15.698 0 0 1-2.128-8.097c0-2.946.698-5.63 2.128-8.02a15.924 15.924 0 0 1 5.881-5.619 17.294 17.294 0 0 1 8.44-2.046c3.11 0 5.925.682 8.44 2.046 2.493 1.364 4.452 3.235 5.882 5.619 1.407 2.39 2.127 5.074 2.127 8.02 0 3.023-.72 5.713-2.127 8.097a15.249 15.249 0 0 1-5.882 5.625c-2.509 1.32-5.325 1.964-8.44 1.964Zm0-4.949a10.74 10.74 0 0 0 5.456-1.364c1.642-.894 2.919-2.171 3.835-3.835.961-1.637 1.452-3.492 1.452-5.538 0-2.045-.491-3.857-1.452-5.455a9.764 9.764 0 0 0-3.835-3.836 10.391 10.391 0 0 0-5.456-1.451c-2.046 0-3.901.491-5.537 1.451a10.343 10.343 0 0 0-3.841 3.836 10.74 10.74 0 0 0-1.364 5.455c0 2.046.447 3.901 1.364 5.538.96 1.664 2.237 2.946 3.841 3.835 1.636.917 3.491 1.364 5.537 1.364Zm48.273 4.523-6.22-8.953c-.396.07-.798.099-1.2.088h-6.902v8.865h-5.625v-30.519h12.532c2.663 0 4.965.469 6.902 1.364 1.986.851 3.492 2.111 4.517 3.748 1.026 1.598 1.539 3.541 1.539 5.799 0 2.281-.579 4.239-1.708 5.882-1.091 1.664-2.684 2.875-4.774 3.666l7.076 10.06h-6.137Zm-.088-19.608c0-1.98-.654-3.491-1.958-4.517-1.255-1.026-3.132-1.539-5.625-1.539h-6.651v12.112h6.651c2.493 0 4.365-.518 5.625-1.538 1.298-1.064 1.964-2.581 1.964-4.518h-.006Zm24.093-6.056h-10.148v-4.855h25.915v4.855h-10.142v25.664h-5.625v-25.664Zm45.67 18.588h-15.26l-2.984 7.076h-5.881l13.726-30.519h5.625l13.728 30.519h-5.882l-3.072-7.076Zm-1.877-4.435-5.712-13.296-5.707 13.296h11.419Zm20.611-19.008h5.63v25.745h15.94v4.774h-21.57v-30.519Zm54.83 25.745v4.774h-22.84v-30.519h22.25v4.774h-16.63v7.927h14.75v4.692h-14.75v8.347l17.22.005Zm35.93 0v4.774h-26v-3.753l17.9-21.911h-17.56v-4.855h25.06v3.835l-17.89 21.91h18.49Zm30.85-2.302h-15.26l-2.98 7.076h-5.89l13.73-30.519h5.63l13.72 30.519h-5.88l-3.07-7.076Zm-1.87-4.435-5.71-13.296-5.72 13.296h11.43ZM1161.25 646h4.94l-14.4 41h-4.86l14.32-41Zm31.95 19.095v4.692l-20.12 7.753v-4.518l15.09-5.625-15.09-5.63v-4.517l20.12 7.845Z"/><path fill="#FFB015" fill-rule="evenodd" d="M277 359.995C277 161.177 438.401 0 637.5 0c199.089 0 360.484 161.177 360.484 359.995H895.265c.642-6.092 1.043-12.253 1.299-18.534 1.23-31.187-1.302-62.14-5.734-87.317-8.427-46.422-26.167-88.776-49.797-126.016C810.335 82.148 766.59 43.8 719.346 23.514c-29.209-12.1-59.323-17.938-90.276-17.49v-.005c-10.318.146-20.724 1-31.219 2.541-13 1.97-25.719 4.97-38.625 8.797-2.334-1.692-6.703-4.26-11.906-4.26-7.724 0-9.042 10.984-9.042 10.984l1.911 1.912c-1.093 1.189-2.254 2.296-3.356 3.345-4.529 4.318-8.044 7.668-1.618 11.77 6.537 4.158 13.507 6.781 20.284 9.333 3.078 1.158 6.116 2.302 9.055 3.567 11.161 5.62 17.167 11.037 20.073 17.792 2.963 6.87 2.724 15.13 1.505 26.401.799 5.217-3.484 13.922-8.95 25.03-5.715 11.616-12.724 25.86-16.566 41.491-1.802 7.328-2.765 15.26-2.89 23.229-.266 16.292 2.932 32.661 9.474 43.891 6.718 11.126 14.863 20.21 23.11 29.408l.001.001c3.261 3.636 6.537 7.29 9.748 11.096 6.003 8.493 8.424 14.922 10.934 21.59.866 2.299 1.742 4.626 2.78 7.076 4.126 13.893 1.308 26.327-1.509 38.758-.807 3.559-1.614 7.118-2.257 10.711-.149 3.444.041 6.596.543 9.513H277Zm446.759 0h-31.434c12.65-16.274 26.272-30.046 38.666-37.044 3.543.384 1.508 4.595-.442 8.627-.983 2.033-1.944 4.022-2.157 5.451-1.866 7.834-3.367 15.434-4.633 22.966Zm44.969 0h-12.942c3.842-12.2 7.503-24.386 10.575-36.534 1.874-12.55-.679-19.054-3.417-26.03l-.001-.002-.001-.002c-.595-1.517-1.199-3.056-1.768-4.684-.048.105-.24-.221-.586-.806l-.001-.001c-1.141-1.93-3.946-6.675-8.674-8.021-16.389-4.659-44.643 8.129-51.607 11.281-.471.214-.845.383-1.111.5l-30.136 14.692c-5.734-4.541-7.734-10.838-8.932-16.453-1.761-8.244-8.932-20.156-11.172-21.672-7.292-8.166-13.432-16.458-18.167-23.505-3.354-4.993-5.455-9.42-7.541-13.815-1.26-2.655-2.515-5.299-4.037-8.049.414-.848.81-1.652 1.187-2.418l.007-.013.009-.02.013-.026c6.445-13.079 7.351-14.916-5.096-29.117-.639-.729-1.237-1.389-1.844-2.059-1.527-1.684-3.113-3.434-5.557-6.519 19.719 2.052 36.323-7.735 38.13-23.261 1.948-16.713-13.989-33.755-35.646-38.151 1.469-3.297 2.854-6.619 4.042-9.948 4.083-11.442 7.865-23.656 8.359-33.208.933-20.167-7.083-36.401-20.51-45.86-10.656-7.171-19.021-11.895-29.938-14.973 15.881-4.886 32.594-7.5 49.329-8.203 1.557-.032 3.099-.053 4.645-.053l.006-.01c78.041.125 145.667 45.581 189.851 98.313 6.456 88.71-11.222 173.747-47.469 248.627Zm10.451 0h106.364c1.952-18.726 1.87-38.264 1.495-57.711-2.807-32.224-9.823-64.833-18.052-94.286-5.557-18.891-13.755-37.958-24.338-56.464-5.409-9.213-11.595-18.491-18.494-27.644.151 3.205.272 6.412.362 9.62.45 16.362.099 32.736-1.052 49.063a506.068 506.068 0 0 1-2.334 24.432 501.912 501.912 0 0 1-3.531 24.287 497.67 497.67 0 0 1-4.719 24.088 497.24 497.24 0 0 1-5.896 23.823 490.488 490.488 0 0 1-7.057 23.505 503.263 503.263 0 0 1-8.203 23.136 502.654 502.654 0 0 1-14.545 34.151ZM573.955 35.987c-9.76-3.156-16.505-4.573-20.021-4.453-1.594.052-2.51.422-2.755 1.089l1.448.411-2.625.605c.07.022.139.045.208.069.121.04.242.081.365.118.663.42.918.916 1.167 1.4.334.652.656 1.28 1.947 1.663 2.091.616 4.408 1.248 6.804 1.901h.001c7.421 2.025 15.598 4.255 20.154 6.87 6.5 3.817 12.208 10.437 16.448 17.135 4.14 6.547 5.619 15.15 5.651 23.698 1.531-7.042 2.307-12.75 2.406-15.933.078-8.468-3.927-15.526-10.052-21.343-5.719-5.438-13.287-9.813-21.146-13.23ZM445.984 149.245c-29.63 0-53.734 24.109-53.734 53.739 0 29.631 24.104 53.766 53.734 53.766 29.631 0 53.766-24.135 53.766-53.766 0-29.63-24.135-53.739-53.766-53.739Zm-69.875 48.359c2.959 0 5.381 2.417 5.381 5.38 0 2.99-2.391 5.381-5.349 5.381H365.38c-2.963 0-5.38-2.422-5.38-5.381a5.388 5.388 0 0 1 5.38-5.38h10.729Zm30.287-52.427c.995 1.734 2.786 2.672 4.666 2.672.94.005 1.864-.24 2.678-.708 2.557-1.48 3.442-4.782 1.963-7.344l-5.38-9.307c-1.479-2.563-4.781-3.443-7.344-1.964-2.562 1.479-3.443 4.781-1.963 7.344l5.38 9.307ZM378.87 158.01l9.307 5.381c2.563 1.479 3.443 4.781 1.964 7.343a5.409 5.409 0 0 1-7.344 1.964l-9.307-5.38c-2.563-1.479-3.443-4.782-1.964-7.344 1.479-2.557 4.781-3.443 7.344-1.964Zm3.927 75.256-9.307 5.38c-2.563 1.479-3.443 4.781-1.964 7.344.995 1.739 2.792 2.677 4.667 2.677a5.296 5.296 0 0 0 2.677-.714l9.307-5.38c2.563-1.479 3.443-4.781 1.964-7.344-1.48-2.557-4.782-3.443-7.344-1.963Zm57.807 39.593c0-2.958 2.422-5.38 5.38-5.38a5.372 5.372 0 0 1 4.972 3.32c.27.653.409 1.353.409 2.06v10.761a5.394 5.394 0 0 1-5.381 5.38c-2.958 0-5.38-2.422-5.38-5.38v-10.761Zm86.016-75.255h-10.761c-2.958 0-5.375 2.417-5.375 5.38 0 2.959 2.417 5.381 5.375 5.381h10.761c2.958 0 5.38-2.422 5.38-5.381 0-2.963-2.422-5.38-5.38-5.38Zm-120.224 63.214c1.479-2.563 4.781-3.443 7.344-1.964a5.358 5.358 0 0 1 2.52 3.259 5.364 5.364 0 0 1-.531 4.085l-5.38 9.307a5.409 5.409 0 0 1-7.344 1.964c-2.562-1.479-3.443-4.781-1.963-7.344l5.354-9.307Zm79.182 0c-1.479-2.563-4.781-3.443-7.344-1.964-2.562 1.479-3.442 4.781-1.963 7.344l5.38 9.307c.995 1.74 2.786 2.677 4.667 2.677.911 0 1.849-.229 2.677-.713 2.557-1.479 3.442-4.781 1.963-7.344l-5.38-9.307Zm23.625-27.552 9.307 5.38c2.558 1.479 3.443 4.781 1.964 7.344a5.425 5.425 0 0 1-4.672 2.677 5.375 5.375 0 0 1-2.672-.714l-9.307-5.38c-2.563-1.479-3.443-4.781-1.964-7.344 1.479-2.557 4.782-3.443 7.344-1.963Zm-2.708-59.829c.911 0 1.854-.223 2.677-.708l9.307-5.38c2.563-1.479 3.443-4.781 1.964-7.344-1.48-2.562-4.782-3.443-7.344-1.963l-9.276 5.349c-2.563 1.479-3.443 4.781-1.964 7.343a5.333 5.333 0 0 0 4.636 2.703Zm-25.584-25.588a5.39 5.39 0 0 1-2.677-.708c-2.562-1.48-3.442-4.782-1.963-7.344l5.38-9.307c1.479-2.563 4.781-3.443 7.344-1.964 2.557 1.479 3.442 4.781 1.963 7.344l-5.38 9.307a5.427 5.427 0 0 1-1.978 1.957 5.421 5.421 0 0 1-2.689.715Zm-34.927-9.365c2.964 0 5.381-2.416 5.381-5.375v-10.734a5.381 5.381 0 0 0-7.44-4.968 5.384 5.384 0 0 0-2.912 2.91 5.381 5.381 0 0 0-.409 2.058v10.76c0 2.959 2.422 5.349 5.38 5.349Z" clip-rule="evenodd"/><path fill="#fff" d="M175.771 420.753H35.156C15.823 420.753 0 436.571 0 455.91v140.614h35.156v-70.307h140.615v-35.156H35.156V455.91h140.615v-35.157Zm193.347 35.157c0-19.339-15.818-35.157-35.151-35.157h-140.62v175.771h35.156v-70.307h20.651l65.037 65.036c3.516 3.516 7.911 5.271 12.745 5.271h42.182v-35.156h-35.151l-35.156-35.151h35.156c19.333 0 35.151-15.818 35.151-35.156V455.91Zm-35.151 0v35.151H228.503V455.91h105.464Zm193.347 140.614c19.552 0 35.151-16.036 35.151-35.156V455.91c0-19.339-15.817-35.157-35.151-35.157H421.851c-19.334 0-35.157 15.818-35.157 35.157v105.458c0 19.338 15.823 35.156 35.157 35.156h105.463ZM421.851 455.91h105.463v105.458H421.851V455.91Zm193.347 140.614V480.738l110.516 110.515c3.297 3.292 7.687 5.271 12.526 5.271 9.666 0 17.573-7.911 17.573-17.578V420.753h-35.151v115.792L610.146 426.024c-3.297-3.292-7.693-5.271-12.526-5.271-9.667 0-17.578 7.912-17.578 17.578v158.193h35.156ZM949.16 420.753H773.389v35.157h70.312v140.614h35.151V455.91h70.308v-35.157ZM1061.6 415h-64.395c-8.849 0-16.094 7.245-16.094 16.099v48.292c0 8.854 7.245 16.099 16.094 16.099h64.395v-16.099h-64.395v-16.094h64.395v-16.099h-64.395v-16.099h64.395V415Zm41.85 80.49v-53.021l50.61 50.604c1.51 1.51 3.52 2.417 5.73 2.417 4.43 0 8.05-3.62 8.05-8.047V415h-16.09v53.021l-50.61-50.604c-1.51-1.511-3.52-2.417-5.74-2.417-4.42 0-8.04 3.625-8.04 8.052v72.438h16.09Zm154.54 0c8.85 0 16.09-7.245 16.09-16.099v-48.292c0-8.854-7.24-16.099-16.09-16.099h-64.39v80.49h64.39Zm-48.3-64.391h48.3v48.292h-48.3v-48.292Z"/><path fill="#FFB015" d="M1045.5 603.302c8.86 0 16.1-7.244 16.1-16.099v-48.291c0-8.854-7.24-16.099-16.1-16.099h-64.389v80.489h64.389Zm-48.295-64.39h48.295v48.291h-48.295v-48.291Zm106.245-16.099c-8.85 0-16.09 7.245-16.09 16.099v64.39h16.09V571.11h48.3v32.192h16.09v-64.39c0-8.854-7.24-16.099-16.09-16.099h-48.3Zm0 16.099h48.3v16.099h-48.3v-16.099Zm154.54 16.099h-48.3v-32.198h-16.09v32.198c0 8.854 7.24 16.099 16.09 16.099h48.3v16.093h-64.39v16.099h64.39c8.85 0 16.09-7.244 16.09-16.099v-64.39h-16.09v32.198Z"/></svg>